<svg xmlns="http://www.w3.org/2000/svg" xmlns:xlink="http://www.w3.org/1999/xlink"><defs>
        <clipPath id="a">
            <path fill="#FFF" d="M18 18h24v24H18z"/>
        </clipPath>
    
        <clipPath id="a">
            <path fill="#FFF" d="M0 19.001h70v24H0z"/>
        </clipPath>
    
        <clipPath id="a">
            <path fill="#FFF" transform="rotate(90 17.5 58.5)" d="M0 0h70v24H0z"/>
        </clipPath>
    </defs><symbol id="arrow" viewBox="0 0 92 62.003"><g fill="none">
    <path d="M40.709 51.51a28.729 28.729 0 0 0 6.806 5.068 28.64 28.64 0 0 0 7.977 2.866c2.8.56 5.621.699 8.463.418a28.62 28.62 0 0 0 8.219-2.067 28.695 28.695 0 0 0 7.268-4.375 28.8 28.8 0 0 0 5.69-6.305 28.9 28.9 0 0 0 3.624-7.694A28.96 28.96 0 0 0 90 31a28.96 28.96 0 0 0-1.244-8.419 28.9 28.9 0 0 0-3.623-7.694 28.8 28.8 0 0 0-5.691-6.305 28.696 28.696 0 0 0-7.268-4.375 28.621 28.621 0 0 0-8.22-2.067 28.6 28.6 0 0 0-8.462.418c-2.8.559-5.46 1.514-7.977 2.866a28.73 28.73 0 0 0-6.806 5.069L39.29 9.083a30.716 30.716 0 0 1 7.278-5.42A30.63 30.63 0 0 1 55.1.597a30.59 30.59 0 0 1 9.05-.446 30.61 30.61 0 0 1 8.79 2.21 30.684 30.684 0 0 1 7.772 4.678 30.788 30.788 0 0 1 6.085 6.741 30.89 30.89 0 0 1 3.873 8.224A30.948 30.948 0 0 1 92 31.002c0 3.065-.443 6.064-1.33 8.997a30.89 30.89 0 0 1-3.872 8.224 30.79 30.79 0 0 1-6.085 6.74 30.685 30.685 0 0 1-7.771 4.678 30.61 30.61 0 0 1-8.79 2.211c-3.04.3-6.056.152-9.051-.446a30.63 30.63 0 0 1-8.532-3.066 30.719 30.719 0 0 1-7.278-5.42l1.418-1.41Zm-1.39 1.41h-.028a.99.99 0 0 1 .003-1.414.99.99 0 0 1 1.415.003v.028l-1.39 1.383Zm1.39-42.454v.028a.99.99 0 0 1-1.415.003.99.99 0 0 1-.003-1.414h.029l1.389 1.383Z" fill="#1F1E1E"/>
    <path d="M5 31.002h60M58 24.002l7 7-7 7" stroke="currentColor" stroke-width="2"/>
</g></symbol><symbol id="close"><g fill="none">
    
    <path fill="none" d="M0 0h60v60H0z"/>
    <circle cx="30" cy="30" r="30" fill="#1F1E1E"/>
    <g clip-path="url(#a)">
        <path d="M18 18h24v24H18z"/>
        <path d="M36 24 24 36M24 24l12 12" stroke="#FFF" stroke-linecap="round" stroke-linejoin="round" stroke-width="2"/>
    </g>
</g></symbol><symbol id="link"><g fill="none">
    
    <path d="M0 1.001h91v60H0z"/>
    <path d="M40.709 51.509a28.729 28.729 0 0 0 6.806 5.069 28.64 28.64 0 0 0 7.977 2.866c2.8.56 5.621.699 8.463.418a28.62 28.62 0 0 0 8.219-2.068 28.695 28.695 0 0 0 7.268-4.374 28.8 28.8 0 0 0 5.69-6.306 28.9 28.9 0 0 0 3.624-7.693A28.96 28.96 0 0 0 90 31a28.96 28.96 0 0 0-1.244-8.419 28.9 28.9 0 0 0-3.623-7.694 28.8 28.8 0 0 0-5.691-6.305 28.696 28.696 0 0 0-7.268-4.375 28.621 28.621 0 0 0-8.22-2.067 28.6 28.6 0 0 0-8.462.417c-2.8.56-5.46 1.515-7.977 2.867a28.73 28.73 0 0 0-6.806 5.069L39.29 9.083a30.716 30.716 0 0 1 7.278-5.42A30.63 30.63 0 0 1 55.1.597a30.59 30.59 0 0 1 9.05-.446 30.61 30.61 0 0 1 8.79 2.21 30.684 30.684 0 0 1 7.772 4.678 30.788 30.788 0 0 1 6.085 6.741 30.89 30.89 0 0 1 3.873 8.224A30.948 30.948 0 0 1 92 31c0 3.066-.443 6.065-1.33 8.998a30.89 30.89 0 0 1-3.872 8.223 30.79 30.79 0 0 1-6.085 6.741 30.685 30.685 0 0 1-7.771 4.678 30.61 30.61 0 0 1-8.79 2.211c-3.04.3-6.056.152-9.051-.446a30.63 30.63 0 0 1-8.532-3.066 30.719 30.719 0 0 1-7.278-5.42l1.418-1.411Zm-1.39 1.411h-.028a.99.99 0 0 1 .003-1.414.99.99 0 0 1 1.415.003v.028l-1.39 1.383Zm1.39-42.454v.028a.99.99 0 0 1-1.415.003.99.99 0 0 1-.003-1.414h.029l1.389 1.383Z" fill="#1F1E1E"/>
    <g clip-path="url(#a)">
        <path d="M0 19.001h70v24H0z"/>
        <path d="M5 31.001h60M58 24.001l7 7-7 7" stroke="#1F1E1E" stroke-linecap="round" stroke-linejoin="round" stroke-width="2"/>
    </g>
</g></symbol><symbol id="more"><g fill="none">
    
    <path d="M0 0h128v132H0z"/>
    <path d="M94 41v91H34V41z"/>
    <path d="M43.492 81.709a28.729 28.729 0 0 0-5.069 6.806 28.64 28.64 0 0 0-2.866 7.977c-.56 2.8-.698 5.621-.417 8.463a28.62 28.62 0 0 0 2.067 8.219 28.695 28.695 0 0 0 4.374 7.268 28.8 28.8 0 0 0 6.306 5.69 28.9 28.9 0 0 0 7.694 3.624A28.96 28.96 0 0 0 64 131a28.96 28.96 0 0 0 8.42-1.244 28.9 28.9 0 0 0 7.693-3.623 28.8 28.8 0 0 0 6.306-5.691 28.696 28.696 0 0 0 4.374-7.268 28.621 28.621 0 0 0 2.067-8.22 28.6 28.6 0 0 0-.417-8.462c-.56-2.8-1.515-5.46-2.866-7.977a28.73 28.73 0 0 0-5.07-6.806l1.412-1.418a30.716 30.716 0 0 1 5.42 7.278 30.63 30.63 0 0 1 3.065 8.532 30.59 30.59 0 0 1 .447 9.05 30.61 30.61 0 0 1-2.211 8.79 30.684 30.684 0 0 1-4.678 7.772 30.788 30.788 0 0 1-6.74 6.085 30.89 30.89 0 0 1-8.224 3.873A30.948 30.948 0 0 1 64 133c-3.065 0-6.065-.443-8.998-1.33a30.89 30.89 0 0 1-8.223-3.872 30.79 30.79 0 0 1-6.741-6.085 30.685 30.685 0 0 1-4.678-7.771 30.61 30.61 0 0 1-2.21-8.79c-.301-3.04-.152-6.056.446-9.051a30.63 30.63 0 0 1 3.065-8.532 30.719 30.719 0 0 1 5.42-7.278l1.411 1.418Zm-1.41-1.39v-.028a.99.99 0 0 1 1.413.003.99.99 0 0 1-.003 1.415h-.028l-1.383-1.39Zm42.454 1.39h-.028a.99.99 0 0 1-.003-1.415.99.99 0 0 1 1.414-.003v.029l-1.383 1.389Z" fill="#1F1E1E"/>
    <g clip-path="url(#a)">
        <path fill="none" d="M76 41v70H52V41z"/>
        <path d="M64 46v60M71 99l-7 7-7-7" stroke="#1F1E1E" stroke-linecap="round" stroke-linejoin="round" stroke-width="2"/>
    </g>
    <path d="M8.984 18.207V6.785h8.774v11.422h-1.86V8.379H10.86v9.828H8.984Zm19.266-4.344c0 .719-.094 1.357-.281 1.914a3.834 3.834 0 0 1-.82 1.414c-.36.38-.792.672-1.297.875-.506.198-1.076.297-1.711.297a4.359 4.359 0 0 1-1.633-.297 3.723 3.723 0 0 1-1.29-.875 4.01 4.01 0 0 1-.835-1.414c-.198-.557-.297-1.195-.297-1.914 0-.953.164-1.76.492-2.422A3.506 3.506 0 0 1 22 9.918c.615-.349 1.346-.523 2.195-.523.797 0 1.5.174 2.11.523.61.349 1.086.857 1.43 1.523.343.667.515 1.474.515 2.422Zm-6.273 0c0 .63.075 1.17.226 1.617.156.448.396.792.719 1.032.323.234.74.351 1.25.351s.927-.117 1.25-.351c.323-.24.56-.584.71-1.032.152-.447.227-.987.227-1.617s-.075-1.164-.226-1.601c-.151-.443-.388-.779-.711-1.008-.323-.234-.742-.352-1.258-.352-.76 0-1.315.256-1.664.766s-.523 1.242-.523 2.195ZM35.719 9.56h2.023l-3.578 4.156 3.883 4.492H35.93l-3.727-4.39v4.39H30.36V9.559h1.844v4.195l3.516-4.195Zm7.125-.164c1.093 0 1.919.242 2.476.726.563.484.844 1.24.844 2.266v5.82H44.86l-.351-1.227h-.063c-.245.313-.497.57-.758.774-.26.203-.562.354-.906.453-.338.104-.752.156-1.242.156-.516 0-.977-.093-1.383-.281a2.197 2.197 0 0 1-.96-.875c-.235-.39-.352-.885-.352-1.484 0-.891.33-1.56.992-2.008.667-.448 1.672-.695 3.016-.742l1.5-.055v-.453c0-.6-.141-1.026-.422-1.281-.276-.256-.667-.383-1.172-.383-.433 0-.852.062-1.258.187a8.886 8.886 0 0 0-1.188.461l-.593-1.297a6.66 6.66 0 0 1 1.437-.547 6.689 6.689 0 0 1 1.688-.21Zm1.5 4.68-1.117.038c-.917.032-1.56.188-1.93.469-.37.281-.555.667-.555 1.156 0 .427.128.74.383.938.255.193.591.289 1.008.289.635 0 1.161-.18 1.578-.54.422-.364.633-.898.633-1.6v-.75Zm7.078-4.68c.635 0 1.206.085 1.71.257.511.167.915.42 1.212.758.297.339.445.76.445 1.266 0 .52-.151.937-.453 1.25-.297.307-.7.528-1.211.664v.07c.36.089.685.216.977.383.291.161.523.38.695.656.177.271.266.62.266 1.047a2.2 2.2 0 0 1-.43 1.32c-.281.396-.714.711-1.297.946-.583.234-1.326.351-2.227.351-.432 0-.843-.023-1.234-.07a8.069 8.069 0 0 1-1.055-.18 4.484 4.484 0 0 1-.828-.297v-1.578c.36.172.794.328 1.305.469.51.135 1.057.203 1.64.203.433 0 .823-.039 1.172-.117.355-.083.633-.219.836-.406.209-.188.313-.438.313-.75a.978.978 0 0 0-.274-.711c-.182-.188-.455-.326-.82-.414-.364-.094-.825-.14-1.383-.14H49.75V13.02h.906c.766 0 1.365-.084 1.797-.25.438-.172.656-.47.656-.891a.863.863 0 0 0-.46-.797c-.308-.177-.78-.266-1.415-.266-.437 0-.87.05-1.297.149-.427.094-.854.229-1.28.406l-.579-1.351a8.824 8.824 0 0 1 3.344-.625Zm9.016 0c1.093 0 1.919.242 2.476.726.563.484.844 1.24.844 2.266v5.82h-1.305l-.351-1.227h-.063a4.46 4.46 0 0 1-.758.774c-.26.203-.562.354-.906.453-.339.104-.753.156-1.242.156-.516 0-.977-.093-1.383-.281a2.197 2.197 0 0 1-.96-.875c-.235-.39-.352-.885-.352-1.484 0-.891.33-1.56.992-2.008.666-.448 1.672-.695 3.015-.742l1.5-.055v-.453c0-.6-.14-1.026-.422-1.281-.276-.256-.666-.383-1.171-.383-.433 0-.852.062-1.258.187a8.887 8.887 0 0 0-1.188.461l-.593-1.297a6.661 6.661 0 0 1 1.437-.547 6.689 6.689 0 0 1 1.688-.21Zm1.5 4.68-1.118.038c-.916.032-1.56.188-1.93.469-.37.281-.554.667-.554 1.156 0 .427.128.74.383.938.255.193.59.289 1.008.289.635 0 1.161-.18 1.578-.54.422-.364.633-.898.633-1.6v-.75Zm10.921-3.071h-2.843v7.203h-1.829v-7.203H65.36V9.559h7.5v1.445Zm3.516 2.008h2.148c.813 0 1.485.093 2.016.281.537.182.938.458 1.203.828.266.37.399.833.399 1.39 0 .548-.125 1.024-.375 1.43-.25.401-.641.714-1.172.938-.526.219-1.214.328-2.063.328h-4V9.559h1.844v3.453Zm3.922 2.547c0-.433-.162-.737-.484-.914-.323-.183-.784-.274-1.383-.274h-2.055v2.484h2.07c.547 0 .993-.099 1.336-.296.344-.204.516-.537.516-1Zm11.476-6.164c.771 0 1.433.158 1.985.476.552.318.976.768 1.273 1.352.297.583.446 1.28.446 2.093v.985h-5.774c.021.838.245 1.484.672 1.937.432.453 1.037.68 1.813.68.552 0 1.046-.052 1.484-.156.443-.11.898-.268 1.367-.477v1.492a5.976 5.976 0 0 1-1.32.446c-.448.093-.985.14-1.61.14-.849 0-1.596-.164-2.242-.492a3.6 3.6 0 0 1-1.508-1.484c-.359-.657-.539-1.472-.539-2.446 0-.968.164-1.791.493-2.468.328-.677.789-1.193 1.382-1.547.594-.354 1.287-.531 2.078-.531Zm0 1.382c-.578 0-1.046.188-1.406.563-.354.375-.562.924-.625 1.648h3.938a3.027 3.027 0 0 0-.22-1.148 1.665 1.665 0 0 0-.624-.781c-.276-.188-.63-.282-1.063-.282ZM109.79 9.56v7.234h1.25v4.453h-1.727v-3.039H97.547V9.559h1.836v7.203h3.359V9.559h1.844v7.203h3.367V9.559h1.836Zm6.266-.164c.771 0 1.432.158 1.984.476.552.318.977.768 1.273 1.352.297.583.446 1.28.446 2.093v.985h-5.774c.021.838.245 1.484.672 1.937.433.453 1.037.68 1.813.68.552 0 1.047-.052 1.484-.156.443-.11.899-.268 1.367-.477v1.492a5.967 5.967 0 0 1-1.32.446c-.448.093-.984.14-1.609.14-.849 0-1.597-.164-2.243-.492a3.598 3.598 0 0 1-1.507-1.484c-.36-.657-.539-1.472-.539-2.446 0-.968.164-1.791.492-2.468.328-.677.789-1.193 1.383-1.547.593-.354 1.286-.531 2.078-.531Zm0 1.382c-.578 0-1.047.188-1.407.563-.354.375-.562.924-.625 1.648h3.938a3.018 3.018 0 0 0-.219-1.148 1.665 1.665 0 0 0-.625-.781c-.276-.188-.63-.282-1.062-.282Z" fill="#1F1E1E"/>
</g></symbol><symbol id="x"><g fill="none">
    <path d="M0 0h24v24H0z"/>
    <path d="M18 6 6 18M6 6l12 12" stroke="#FFF" stroke-linecap="round" stroke-linejoin="round" stroke-width="2"/>
</g></symbol></svg>