<svg viewBox="0 0 128 133" xmlns="http://www.w3.org/2000/svg" xmlns:xlink="http://www.w3.org/1999/xlink" width="128.000000" height="133.000000" fill="none" customFrame="#000000">
	<defs>
		<clipPath id="clipPath_0">
			<rect width="91.000008" height="60.000000" x="0.000000" y="0.000000" fill="rgb(255,255,255)" transform="matrix(-4.37114e-08,1,-1,-4.37114e-08,94,41)" />
		</clipPath>
		<clipPath id="clipPath_1">
			<rect width="70.000000" height="24.000000" x="0.000000" y="0.000000" fill="rgb(255,255,255)" transform="matrix(-4.37114e-08,1,-1,-4.37114e-08,76,41)" />
		</clipPath>
	</defs>
	<rect id="показать / скрыть 1920-768" width="128.000000" height="132.000000" x="0.000000" y="0.000000" />
	<g id="Frame 1906" customFrame="url(#clipPath_0)">
		<rect id="Frame 1906" width="91.000008" height="60.000000" x="0.000000" y="0.000000" transform="matrix(-4.37114e-08,1,-1,-4.37114e-08,94,41)" />
		<path id="Ellipse 31" d="M50.2914 9.49243C48.2722 7.46481 46.0035 5.77515 43.4852 4.42347C40.9671 3.07189 38.3079 2.11643 35.5076 1.55708C32.7074 0.997755 29.8866 0.8586 27.0453 1.13962C24.2039 1.42064 21.4643 2.10975 18.8264 3.20694C16.1884 4.3042 13.7658 5.76236 11.5585 7.58141C9.35104 9.40061 7.454 11.5024 5.8674 13.8869C4.28068 16.2715 3.07277 18.8361 2.24369 21.5806C1.41456 24.3253 1 27.1318 1 30C1 32.8682 1.41456 35.6747 2.24369 38.4194C3.07277 41.1639 4.28068 43.7285 5.8674 46.1131C7.454 48.4976 9.35103 50.5994 11.5585 52.4186C13.7658 54.2376 16.1884 55.6958 18.8265 56.7931C21.4643 57.8902 24.2039 58.5794 27.0453 58.8604C29.8866 59.1414 32.7073 59.0022 35.5076 58.4429C38.3079 57.8836 40.9671 56.9281 43.4852 55.5765C46.0035 54.2248 48.2722 52.5352 50.2914 50.5076L51.7086 51.9188C49.5497 54.0868 47.1238 55.8934 44.4311 57.3387C41.7381 58.7841 38.8942 59.806 35.8993 60.4042C32.9043 61.0024 29.8874 61.1512 26.8484 60.8507C23.8095 60.5501 20.8795 59.8131 18.0584 58.6397C15.2374 57.4663 12.6468 55.9071 10.2866 53.962C7.92651 52.0171 5.89843 49.7701 4.20233 47.2211C2.50633 44.6722 1.21527 41.9311 0.329138 38.9977C-0.556953 36.0645 -0.999999 33.0652 -1 30C-1 26.9348 -0.556955 23.9355 0.329136 21.0023C1.21526 18.0689 2.50633 15.3278 4.20233 12.7789C5.89845 10.2299 7.92653 7.98292 10.2866 6.03799C12.6468 4.09291 15.2374 2.53368 18.0583 1.36031C20.8795 0.186882 23.8095 -0.550113 26.8484 -0.850673C29.8874 -1.15124 32.9043 -1.0024 35.8993 -0.404176C38.8942 0.194037 41.7381 1.21585 44.4311 2.66127C47.1238 4.1066 49.5497 5.91323 51.7086 8.08117L50.2914 9.49243ZM51.6803 8.08112L51.7086 8.08117C52.1037 8.47797 52.1024 9.10023 51.7056 9.49538C51.3088 9.89054 50.6866 9.88924 50.2914 9.49243L50.2915 9.46415L51.6803 8.08112ZM50.2915 50.5358L50.2914 50.5076C50.6866 50.1108 51.3088 50.1095 51.7056 50.5046C52.1024 50.8998 52.1037 51.522 51.7086 51.9188L51.6803 51.9189L50.2915 50.5358Z" fill="rgb(31,30,30)" fill-rule="nonzero" transform="matrix(1.31134e-07,-1,1,1.31134e-07,34,132)" />
		<g id="fi:arrow-right" clip-path="url(#clipPath_1)" customFrame="url(#clipPath_1)">
			<rect id="fi:arrow-right" width="70.000000" height="24.000000" x="0.000000" y="0.000000" fill="rgb(255,255,255)" fill-opacity="0" transform="matrix(-4.37114e-08,1,-1,-4.37114e-08,76,41)" />
			<path id="Vector" d="M0 0L60 0" stroke="rgb(31,30,30)" stroke-linecap="round" stroke-linejoin="round" stroke-width="2" transform="matrix(-4.37114e-08,1,-1,-4.37114e-08,64,46)" />
			<path id="Vector" d="M0 0L7 7L0 14" fill-rule="nonzero" stroke="rgb(31,30,30)" stroke-linecap="round" stroke-linejoin="round" stroke-width="2" transform="matrix(-4.37114e-08,1,-1,-4.37114e-08,71,99)" />
		</g>
	</g>
	<path id="Показать еще" d="M8.98438 18.207L8.98438 6.78516L17.7578 6.78516L17.7578 18.207L15.8984 18.207L15.8984 8.37891L10.8594 8.37891L10.8594 18.207L8.98438 18.207ZM28.25 13.8633C28.25 14.582 28.1562 15.2201 27.9688 15.7773C27.7812 16.3346 27.5078 16.806 27.1484 17.1914C26.7891 17.5716 26.3568 17.8633 25.8516 18.0664C25.3464 18.2643 24.776 18.3633 24.1406 18.3633C23.5469 18.3633 23.0026 18.2643 22.5078 18.0664C22.013 17.8633 21.5833 17.5716 21.2188 17.1914C20.8594 16.806 20.5807 16.3346 20.3828 15.7773C20.1849 15.2201 20.0859 14.582 20.0859 13.8633C20.0859 12.9102 20.25 12.1029 20.5781 11.4414C20.9115 10.7747 21.3854 10.2669 22 9.91797C22.6146 9.56901 23.3464 9.39453 24.1953 9.39453C24.9922 9.39453 25.6953 9.56901 26.3047 9.91797C26.9141 10.2669 27.3906 10.7747 27.7344 11.4414C28.0781 12.1081 28.25 12.9154 28.25 13.8633ZM21.9766 13.8633C21.9766 14.4935 22.0521 15.0326 22.2031 15.4805C22.3594 15.9284 22.599 16.2721 22.9219 16.5117C23.2448 16.7461 23.6615 16.8633 24.1719 16.8633C24.6823 16.8633 25.099 16.7461 25.4219 16.5117C25.7448 16.2721 25.9818 15.9284 26.1328 15.4805C26.2839 15.0326 26.3594 14.4935 26.3594 13.8633C26.3594 13.2331 26.2839 12.6992 26.1328 12.2617C25.9818 11.819 25.7448 11.4831 25.4219 11.2539C25.099 11.0195 24.6797 10.9023 24.1641 10.9023C23.4036 10.9023 22.849 11.1576 22.5 11.668C22.151 12.1784 21.9766 12.9102 21.9766 13.8633ZM35.7188 9.55859L37.7422 9.55859L34.1641 13.7148L38.0469 18.207L35.9297 18.207L32.2031 13.8164L32.2031 18.207L30.3594 18.207L30.3594 9.55859L32.2031 9.55859L32.2031 13.7539L35.7188 9.55859ZM42.8438 9.39453C43.9375 9.39453 44.763 9.63672 45.3203 10.1211C45.8828 10.6055 46.1641 11.3607 46.1641 12.3867L46.1641 18.207L44.8594 18.207L44.5078 16.9805L44.4453 16.9805C44.2005 17.293 43.9479 17.5508 43.6875 17.7539C43.4271 17.957 43.125 18.1081 42.7812 18.207C42.4427 18.3112 42.0286 18.3633 41.5391 18.3633C41.0234 18.3633 40.5625 18.2695 40.1562 18.082C39.75 17.8893 39.4297 17.5977 39.1953 17.207C38.9609 16.8164 38.8438 16.3216 38.8438 15.7227C38.8438 14.832 39.1745 14.1628 39.8359 13.7148C40.5026 13.2669 41.5078 13.0195 42.8516 12.9727L44.3516 12.918L44.3516 12.4648C44.3516 11.8659 44.2109 11.4388 43.9297 11.1836C43.6536 10.9284 43.263 10.8008 42.7578 10.8008C42.3255 10.8008 41.9062 10.8633 41.5 10.9883C41.0938 11.1133 40.6979 11.2669 40.3125 11.4492L39.7188 10.1523C40.1406 9.92839 40.6198 9.74609 41.1562 9.60547C41.6979 9.46484 42.2604 9.39453 42.8438 9.39453ZM44.3438 14.0742L43.2266 14.1133C42.3099 14.1445 41.6667 14.3008 41.2969 14.582C40.9271 14.8633 40.7422 15.2487 40.7422 15.7383C40.7422 16.1654 40.8698 16.4779 41.125 16.6758C41.3802 16.8685 41.7161 16.9648 42.1328 16.9648C42.7682 16.9648 43.2943 16.7852 43.7109 16.4258C44.1328 16.0612 44.3438 15.5273 44.3438 14.8242L44.3438 14.0742ZM51.4219 9.39453C52.0573 9.39453 52.6276 9.48047 53.1328 9.65234C53.6432 9.81901 54.0469 10.0716 54.3438 10.4102C54.6406 10.7487 54.7891 11.1706 54.7891 11.6758C54.7891 12.1966 54.638 12.6133 54.3359 12.9258C54.0391 13.2331 53.6354 13.4544 53.125 13.5898L53.125 13.6602C53.4844 13.7487 53.8099 13.8763 54.1016 14.043C54.3932 14.2044 54.625 14.4232 54.7969 14.6992C54.974 14.9701 55.0625 15.319 55.0625 15.7461C55.0625 16.2305 54.9193 16.6706 54.6328 17.0664C54.3516 17.4622 53.9193 17.7773 53.3359 18.0117C52.7526 18.2461 52.0104 18.3633 51.1094 18.3633C50.6771 18.3633 50.2656 18.3398 49.875 18.293C49.4896 18.2513 49.138 18.1914 48.8203 18.1133C48.5026 18.0299 48.2266 17.931 47.9922 17.8164L47.9922 16.2383C48.3516 16.4102 48.7865 16.5664 49.2969 16.707C49.8073 16.8424 50.3542 16.9102 50.9375 16.9102C51.3698 16.9102 51.7604 16.8711 52.1094 16.793C52.4635 16.7096 52.7422 16.5742 52.9453 16.3867C53.1536 16.1992 53.2578 15.9492 53.2578 15.6367C53.2578 15.3503 53.1667 15.1133 52.9844 14.9258C52.8021 14.7383 52.5286 14.6003 52.1641 14.5117C51.7995 14.418 51.3385 14.3711 50.7812 14.3711L49.75 14.3711L49.75 13.0195L50.6562 13.0195C51.4219 13.0195 52.0208 12.9362 52.4531 12.7695C52.8906 12.5977 53.1094 12.3008 53.1094 11.8789C53.1094 11.5247 52.9557 11.2591 52.6484 11.082C52.3411 10.9049 51.8698 10.8164 51.2344 10.8164C50.7969 10.8164 50.3646 10.8659 49.9375 10.9648C49.5104 11.0586 49.0833 11.194 48.6562 11.3711L48.0781 10.0195C48.5521 9.82682 49.0599 9.67578 49.6016 9.56641C50.1432 9.45182 50.75 9.39453 51.4219 9.39453ZM60.4375 9.39453C61.5312 9.39453 62.3568 9.63672 62.9141 10.1211C63.4766 10.6055 63.7578 11.3607 63.7578 12.3867L63.7578 18.207L62.4531 18.207L62.1016 16.9805L62.0391 16.9805C61.7943 17.293 61.5417 17.5508 61.2812 17.7539C61.0208 17.957 60.7188 18.1081 60.375 18.207C60.0365 18.3112 59.6224 18.3633 59.1328 18.3633C58.6172 18.3633 58.1562 18.2695 57.75 18.082C57.3438 17.8893 57.0234 17.5977 56.7891 17.207C56.5547 16.8164 56.4375 16.3216 56.4375 15.7227C56.4375 14.832 56.7682 14.1628 57.4297 13.7148C58.0964 13.2669 59.1016 13.0195 60.4453 12.9727L61.9453 12.918L61.9453 12.4648C61.9453 11.8659 61.8047 11.4388 61.5234 11.1836C61.2474 10.9284 60.8568 10.8008 60.3516 10.8008C59.9193 10.8008 59.5 10.8633 59.0938 10.9883C58.6875 11.1133 58.2917 11.2669 57.9062 11.4492L57.3125 10.1523C57.7344 9.92839 58.2135 9.74609 58.75 9.60547C59.2917 9.46484 59.8542 9.39453 60.4375 9.39453ZM61.9375 14.0742L60.8203 14.1133C59.9036 14.1445 59.2604 14.3008 58.8906 14.582C58.5208 14.8633 58.3359 15.2487 58.3359 15.7383C58.3359 16.1654 58.4635 16.4779 58.7188 16.6758C58.974 16.8685 59.3099 16.9648 59.7266 16.9648C60.362 16.9648 60.888 16.7852 61.3047 16.4258C61.7266 16.0612 61.9375 15.5273 61.9375 14.8242L61.9375 14.0742ZM72.8594 11.0039L70.0156 11.0039L70.0156 18.207L68.1875 18.207L68.1875 11.0039L65.3594 11.0039L65.3594 9.55859L72.8594 9.55859L72.8594 11.0039ZM76.375 13.0117L78.5234 13.0117C79.3359 13.0117 80.0078 13.1055 80.5391 13.293C81.0755 13.4753 81.4766 13.7513 81.7422 14.1211C82.0078 14.4909 82.1406 14.9544 82.1406 15.5117C82.1406 16.0586 82.0156 16.5352 81.7656 16.9414C81.5156 17.3424 81.125 17.6549 80.5938 17.8789C80.0677 18.0977 79.3802 18.207 78.5312 18.207L74.5312 18.207L74.5312 9.55859L76.375 9.55859L76.375 13.0117ZM80.2969 15.5586C80.2969 15.1263 80.1354 14.8216 79.8125 14.6445C79.4896 14.4622 79.0286 14.3711 78.4297 14.3711L76.375 14.3711L76.375 16.8555L78.4453 16.8555C78.9922 16.8555 79.4375 16.7565 79.7812 16.5586C80.125 16.3555 80.2969 16.0221 80.2969 15.5586ZM91.7734 9.39453C92.5443 9.39453 93.2057 9.55339 93.7578 9.87109C94.3099 10.1888 94.7344 10.6393 95.0312 11.2227C95.3281 11.806 95.4766 12.5039 95.4766 13.3164L95.4766 14.3008L89.7031 14.3008C89.724 15.1393 89.9479 15.7852 90.375 16.2383C90.8073 16.6914 91.4115 16.918 92.1875 16.918C92.7396 16.918 93.2344 16.8659 93.6719 16.7617C94.1146 16.6523 94.5703 16.4935 95.0391 16.2852L95.0391 17.7773C94.6068 17.9805 94.1667 18.1289 93.7188 18.2227C93.2708 18.3164 92.7344 18.3633 92.1094 18.3633C91.2604 18.3633 90.513 18.1992 89.8672 17.8711C89.2266 17.5378 88.724 17.043 88.3594 16.3867C88 15.7305 87.8203 14.9154 87.8203 13.9414C87.8203 12.9727 87.9844 12.1497 88.3125 11.4727C88.6406 10.7956 89.1016 10.2799 89.6953 9.92578C90.2891 9.57161 90.9818 9.39453 91.7734 9.39453ZM91.7734 10.7773C91.1953 10.7773 90.7266 10.9648 90.3672 11.3398C90.013 11.7148 89.8047 12.2643 89.7422 12.9883L93.6797 12.9883C93.6745 12.556 93.6016 12.1732 93.4609 11.8398C93.3255 11.5065 93.1172 11.2461 92.8359 11.0586C92.5599 10.8711 92.2057 10.7773 91.7734 10.7773ZM109.789 9.55859L109.789 16.793L111.039 16.793L111.039 21.2461L109.312 21.2461L109.312 18.207L97.5469 18.207L97.5469 9.55859L99.3828 9.55859L99.3828 16.7617L102.742 16.7617L102.742 9.55859L104.586 9.55859L104.586 16.7617L107.953 16.7617L107.953 9.55859L109.789 9.55859ZM116.055 9.39453C116.826 9.39453 117.487 9.55339 118.039 9.87109C118.591 10.1888 119.016 10.6393 119.312 11.2227C119.609 11.806 119.758 12.5039 119.758 13.3164L119.758 14.3008L113.984 14.3008C114.005 15.1393 114.229 15.7852 114.656 16.2383C115.089 16.6914 115.693 16.918 116.469 16.918C117.021 16.918 117.516 16.8659 117.953 16.7617C118.396 16.6523 118.852 16.4935 119.32 16.2852L119.32 17.7773C118.888 17.9805 118.448 18.1289 118 18.2227C117.552 18.3164 117.016 18.3633 116.391 18.3633C115.542 18.3633 114.794 18.1992 114.148 17.8711C113.508 17.5378 113.005 17.043 112.641 16.3867C112.281 15.7305 112.102 14.9154 112.102 13.9414C112.102 12.9727 112.266 12.1497 112.594 11.4727C112.922 10.7956 113.383 10.2799 113.977 9.92578C114.57 9.57161 115.263 9.39453 116.055 9.39453ZM116.055 10.7773C115.477 10.7773 115.008 10.9648 114.648 11.3398C114.294 11.7148 114.086 12.2643 114.023 12.9883L117.961 12.9883C117.956 12.556 117.883 12.1732 117.742 11.8398C117.607 11.5065 117.398 11.2461 117.117 11.0586C116.841 10.8711 116.487 10.7773 116.055 10.7773Z" fill="rgb(31,30,30)" fill-rule="nonzero" />
</svg>
