<svg viewBox="0 0 127 93" xmlns="http://www.w3.org/2000/svg" xmlns:xlink="http://www.w3.org/1999/xlink" width="127.000000" height="93.000000" fill="none" customFrame="#000000">
	<g id="10 стол">
		<path id="Rectangle 182" d="M0 65L95 65L95 0L127 0L127 64.8261L127 93L0 93L0 65Z" fill="rgb(31,30,30)" fill-rule="nonzero" />
		<path id="10" d="M106.199 85.2588L102.283 85.2588L102.283 77.7002C102.283 76.7822 102.303 75.9424 102.342 75.1807C102.101 75.4736 101.801 75.7796 101.443 76.0986L99.8223 77.4365L97.8203 74.9756L102.723 70.9814L106.199 70.9814L106.199 85.2588ZM119.734 78.1396C119.734 80.6657 119.311 82.5179 118.465 83.6963C117.618 84.8682 116.323 85.4541 114.578 85.4541C112.872 85.4541 111.587 84.8421 110.721 83.6182C109.855 82.3877 109.422 80.5615 109.422 78.1396C109.422 75.6006 109.845 73.7386 110.691 72.5537C111.538 71.3688 112.833 70.7764 114.578 70.7764C116.277 70.7764 117.56 71.3949 118.426 72.6318C119.298 73.8623 119.734 75.6982 119.734 78.1396ZM113.26 78.1396C113.26 79.7542 113.361 80.8643 113.562 81.4697C113.764 82.0752 114.103 82.3779 114.578 82.3779C115.06 82.3779 115.398 82.0654 115.594 81.4404C115.796 80.8154 115.896 79.7152 115.896 78.1396C115.896 76.5576 115.796 75.4508 115.594 74.8193C115.392 74.1813 115.053 73.8623 114.578 73.8623C114.103 73.8623 113.764 74.1683 113.562 74.7803C113.361 75.3923 113.26 76.512 113.26 78.1396Z" fill="rgb(255,255,255)" fill-rule="nonzero" />
		<circle id="Ellipse 95" cx="12" cy="50" r="12" fill="rgb(31,30,30)" />
		<circle id="Ellipse 96" cx="46" cy="50" r="12" fill="rgb(31,30,30)" />
		<circle id="Ellipse 97" cx="79" cy="50" r="12" fill="rgb(31,30,30)" />
		<circle id="Ellipse 98" cx="79" cy="16" r="12" fill="rgb(31,30,30)" />
	</g>
</svg>
