<svg viewBox="0 0 95 121" xmlns="http://www.w3.org/2000/svg" xmlns:xlink="http://www.w3.org/1999/xlink" width="95.000000" height="121.000000" fill="none" customFrame="#000000">
	<g id="11 стол">
		<rect id="Rectangle 194" width="40.000000" height="93.000000" x="27.500000" y="0.500000" stroke="rgb(31,30,30)" stroke-width="1" />
		<circle id="Ellipse 88" cx="12" cy="12" r="11.5" stroke="rgb(31,30,30)" stroke-width="1" />
		<circle id="Ellipse 89" cx="83" cy="13" r="11.5" stroke="rgb(31,30,30)" stroke-width="1" />
		<circle id="Ellipse 90" cx="12" cy="45" r="11.5" stroke="rgb(31,30,30)" stroke-width="1" />
		<circle id="Ellipse 91" cx="83" cy="46" r="11.5" stroke="rgb(31,30,30)" stroke-width="1" />
		<circle id="Ellipse 92" cx="12" cy="78" r="11.5" stroke="rgb(31,30,30)" stroke-width="1" />
		<circle id="Ellipse 93" cx="83" cy="79" r="11.5" stroke="rgb(31,30,30)" stroke-width="1" />
		<circle id="Ellipse 94" cx="48" cy="109" r="11.5" stroke="rgb(31,30,30)" stroke-width="1" />
		<path id="11" d="M45.1992 56.2588L41.2832 56.2588L41.2832 48.7002C41.2832 47.7822 41.3027 46.9424 41.3418 46.1807C41.1009 46.4736 40.8014 46.7796 40.4434 47.0986L38.8223 48.4365L36.8203 45.9756L41.7227 41.9814L45.1992 41.9814L45.1992 56.2588ZM56.918 56.2588L53.002 56.2588L53.002 48.7002C53.002 47.7822 53.0215 46.9424 53.0605 46.1807C52.8197 46.4736 52.5202 46.7796 52.1621 47.0986L50.541 48.4365L48.5391 45.9756L53.4414 41.9814L56.918 41.9814L56.918 56.2588Z" fill="rgb(31,30,30)" fill-rule="nonzero" />
	</g>
</svg>
