<svg viewBox="0 0 95 121" xmlns="http://www.w3.org/2000/svg" xmlns:xlink="http://www.w3.org/1999/xlink" width="95.000000" height="121.000000" fill="none" customFrame="#000000">
	<g id="3 стол">
		<rect id="Rectangle 195" width="40.000000" height="93.000000" x="27.500000" y="0.500000" stroke="rgb(31,30,30)" stroke-width="1" />
		<path id="3" d="M52.4785 45.0771C52.4785 45.9626 52.2083 46.7243 51.668 47.3623C51.1276 47.9938 50.3464 48.4528 49.3242 48.7393L49.3242 48.7979C51.707 49.0973 52.8984 50.2236 52.8984 52.1768C52.8984 53.5049 52.3711 54.5498 51.3164 55.3115C50.2682 56.0732 48.8099 56.4541 46.9414 56.4541C46.1732 56.4541 45.4603 56.3988 44.8027 56.2881C44.1517 56.1774 43.4453 55.9756 42.6836 55.6826L42.6836 52.4795C43.3086 52.7985 43.9434 53.0361 44.5879 53.1924C45.2389 53.3421 45.8379 53.417 46.3848 53.417C47.2311 53.417 47.8464 53.2998 48.2305 53.0654C48.6211 52.8245 48.8164 52.4502 48.8164 51.9424C48.8164 51.5518 48.7155 51.2523 48.5137 51.0439C48.3118 50.8291 47.9863 50.6696 47.5371 50.5654C47.0879 50.4548 46.502 50.3994 45.7793 50.3994L44.9004 50.3994L44.9004 47.499L45.7988 47.499C47.7585 47.499 48.7383 46.9977 48.7383 45.9951C48.7383 45.6175 48.5918 45.3376 48.2988 45.1553C48.0124 44.973 47.625 44.8818 47.1367 44.8818C46.2253 44.8818 45.2812 45.1878 44.3047 45.7998L42.7031 43.2217C43.4583 42.7008 44.2298 42.3298 45.0176 42.1084C45.8118 41.887 46.7201 41.7764 47.7422 41.7764C49.2201 41.7764 50.3789 42.0693 51.2188 42.6553C52.0586 43.2412 52.4785 44.0485 52.4785 45.0771Z" fill="rgb(31,30,30)" fill-rule="nonzero" />
		<circle id="Ellipse 67" cx="12" cy="12" r="11.5" stroke="rgb(31,30,30)" stroke-width="1" />
		<circle id="Ellipse 68" cx="83" cy="13" r="11.5" stroke="rgb(31,30,30)" stroke-width="1" />
		<circle id="Ellipse 69" cx="12" cy="45" r="11.5" stroke="rgb(31,30,30)" stroke-width="1" />
		<circle id="Ellipse 70" cx="83" cy="46" r="11.5" stroke="rgb(31,30,30)" stroke-width="1" />
		<circle id="Ellipse 71" cx="12" cy="78" r="11.5" stroke="rgb(31,30,30)" stroke-width="1" />
		<circle id="Ellipse 72" cx="83" cy="79" r="11.5" stroke="rgb(31,30,30)" stroke-width="1" />
		<circle id="Ellipse 73" cx="48" cy="109" r="11.5" stroke="rgb(31,30,30)" stroke-width="1" />
	</g>
</svg>
