<svg viewBox="0 0 111 83" xmlns="http://www.w3.org/2000/svg" xmlns:xlink="http://www.w3.org/1999/xlink" width="111.000000" height="83.000000" fill="none" customFrame="#000000">
	<g id="4 стол">
		<rect id="Rectangle 188" width="83.000000" height="28.000000" x="0.500000" y="27.500000" stroke="rgb(188.062,51.332,36.0453)" stroke-width="1" />
		<path id="4" d="M47.416 44.4951L45.8438 44.4951L45.8438 47.2588L42.0352 47.2588L42.0352 44.4951L36.3418 44.4951L36.3418 41.6631L42.2793 32.9814L45.8438 32.9814L45.8438 41.6143L47.416 41.6143L47.416 44.4951ZM42.0352 41.6143L42.0352 39.9541C42.0352 39.6416 42.0449 39.2217 42.0645 38.6943C42.0905 38.1605 42.11 37.8805 42.123 37.8545L42.0156 37.8545C41.7943 38.3558 41.5436 38.8245 41.2637 39.2607L39.6816 41.6143L42.0352 41.6143Z" fill="rgb(188.062,51.332,36.0453)" fill-rule="nonzero" />
		<circle id="Ellipse 45" cx="20" cy="12" r="11.5" stroke="rgb(188.062,51.332,36.0453)" stroke-width="1" />
		<circle id="Ellipse 46" cx="63" cy="12" r="11.5" stroke="rgb(188.062,51.332,36.0453)" stroke-width="1" />
		<circle id="Ellipse 47" cx="99" cy="40" r="11.5" stroke="rgb(188.062,51.332,36.0453)" stroke-width="1" />
		<circle id="Ellipse 48" cx="63" cy="71" r="11.5" stroke="rgb(188.062,51.332,36.0453)" stroke-width="1" />
		<circle id="Ellipse 49" cx="20" cy="71" r="11.5" stroke="rgb(188.062,51.332,36.0453)" stroke-width="1" />
	</g>
</svg>
