<svg viewBox="0 0 90 91" xmlns="http://www.w3.org/2000/svg" xmlns:xlink="http://www.w3.org/1999/xlink" width="90.000000" height="91.000000" fill="none" customFrame="#000000">
	<g id="8 стол">
		<rect id="Rectangle 193" width="61.000000" height="36.000000" x="28.500000" y="27.500000" stroke="rgb(188.062,51.332,36.0453)" stroke-width="1" />
		<path id="8" d="M56.8984 38.7764C58.4023 38.7764 59.571 39.0791 60.4043 39.6846C61.2441 40.29 61.6641 41.1494 61.6641 42.2627C61.6641 43.0179 61.4655 43.682 61.0684 44.2549C60.6777 44.8213 60.056 45.3161 59.2031 45.7393C60.2578 46.3382 61 46.9372 61.4297 47.5361C61.8659 48.1286 62.084 48.7699 62.084 49.46C62.084 50.7295 61.625 51.7126 60.707 52.4092C59.7891 53.1058 58.5065 53.4541 56.8594 53.4541C55.1797 53.4541 53.8939 53.1156 53.002 52.4385C52.11 51.7549 51.6641 50.7751 51.6641 49.499C51.6641 48.6722 51.8626 47.9691 52.2598 47.3896C52.6569 46.8037 53.3242 46.2731 54.2617 45.7979C53.5065 45.29 52.9531 44.7464 52.6016 44.167C52.2565 43.5811 52.084 42.9398 52.084 42.2432C52.084 41.1494 52.5104 40.2998 53.3633 39.6943C54.2161 39.0824 55.3945 38.7764 56.8984 38.7764ZM55.1992 49.3428C55.1992 49.7464 55.3424 50.0719 55.6289 50.3193C55.9154 50.5602 56.3125 50.6807 56.8203 50.6807C57.9661 50.6807 58.5391 50.2607 58.5391 49.4209C58.5391 49.1019 58.4121 48.7894 58.1582 48.4834C57.9108 48.1709 57.4648 47.8226 56.8203 47.4385C56.2409 47.7445 55.8242 48.0537 55.5703 48.3662C55.3229 48.6722 55.1992 48.9977 55.1992 49.3428ZM56.8789 41.5596C56.5469 41.5596 56.2669 41.6572 56.0391 41.8525C55.8112 42.0413 55.6973 42.2887 55.6973 42.5947C55.6973 43.1546 56.0781 43.6494 56.8398 44.0791C57.3021 43.8122 57.6178 43.568 57.7871 43.3467C57.9564 43.1253 58.041 42.8747 58.041 42.5947C58.041 42.2822 57.9271 42.0316 57.6992 41.8428C57.4714 41.654 57.1979 41.5596 56.8789 41.5596Z" fill="rgb(188.062,51.332,36.0453)" fill-rule="nonzero" />
		<circle id="Ellipse 57" cx="12" cy="12" r="11.5" stroke="rgb(188.062,51.332,36.0453)" stroke-width="1" transform="matrix(-1,0,0,-1,69,91)" />
		<circle id="Ellipse 58" cx="12" cy="12" r="11.5" stroke="rgb(188.062,51.332,36.0453)" stroke-width="1" transform="matrix(-1,0,0,-1,24,55)" />
		<circle id="Ellipse 59" cx="12" cy="12" r="11.5" stroke="rgb(188.062,51.332,36.0453)" stroke-width="1" transform="matrix(-1,0,0,-1,69,24)" />
	</g>
</svg>
