<svg viewBox="0 0 50 22" xmlns="http://www.w3.org/2000/svg" xmlns:xlink="http://www.w3.org/1999/xlink" width="50.000000" height="22.000000" fill="none" customFrame="#000000">
	<path id="Сцена" d="M6.36719 7.22266C5.29427 7.22266 4.45052 7.60286 3.83594 8.36328C3.22135 9.1237 2.91406 10.1732 2.91406 11.5117C2.91406 12.9128 3.20833 13.9727 3.79688 14.6914C4.39062 15.4102 5.2474 15.7695 6.36719 15.7695C6.85156 15.7695 7.32031 15.7227 7.77344 15.6289C8.22656 15.5299 8.69792 15.4049 9.1875 15.2539L9.1875 16.8555C8.29167 17.194 7.27604 17.3633 6.14062 17.3633C4.46875 17.3633 3.1849 16.8581 2.28906 15.8477C1.39323 14.832 0.945312 13.3815 0.945312 11.4961C0.945312 10.3086 1.16146 9.26953 1.59375 8.37891C2.03125 7.48828 2.66146 6.80599 3.48438 6.33203C4.30729 5.85807 5.27344 5.62109 6.38281 5.62109C7.54948 5.62109 8.6276 5.86589 9.61719 6.35547L8.94531 7.91016C8.5599 7.72786 8.15104 7.56901 7.71875 7.43359C7.29167 7.29297 6.84115 7.22266 6.36719 7.22266ZM19.1484 15.7852L20.3984 15.7852L20.3984 20.2461L18.6719 20.2461L18.6719 17.207L11.4531 17.207L11.4531 8.56641L13.2891 8.56641L13.2891 15.7539L17.3125 15.7539L17.3125 8.56641L19.1484 8.56641L19.1484 15.7852ZM25.7422 17.3633C24.3984 17.3633 23.3464 16.9727 22.5859 16.1914C21.8307 15.4049 21.4531 14.3242 21.4531 12.9492C21.4531 11.5378 21.8047 10.4284 22.5078 9.62109C23.2109 8.8138 24.1771 8.41016 25.4062 8.41016C26.5469 8.41016 27.4479 8.75651 28.1094 9.44922C28.7708 10.1419 29.1016 11.0951 29.1016 12.3086L29.1016 13.3008L23.3438 13.3008C23.3698 14.1393 23.5964 14.7852 24.0234 15.2383C24.4505 15.6862 25.0521 15.9102 25.8281 15.9102C26.3385 15.9102 26.8125 15.8633 27.25 15.7695C27.6927 15.6706 28.1667 15.5091 28.6719 15.2852L28.6719 16.7773C28.224 16.9909 27.7708 17.1419 27.3125 17.2305C26.8542 17.319 26.3307 17.3633 25.7422 17.3633ZM25.4062 9.80078C24.8229 9.80078 24.3542 9.98568 24 10.3555C23.651 10.7253 23.4427 11.2643 23.375 11.9727L27.2969 11.9727C27.2865 11.2591 27.1146 10.7201 26.7812 10.3555C26.4479 9.98568 25.9896 9.80078 25.4062 9.80078ZM33.0234 8.56641L33.0234 12.0352L37.0938 12.0352L37.0938 8.56641L38.9297 8.56641L38.9297 17.207L37.0938 17.207L37.0938 13.4805L33.0234 13.4805L33.0234 17.207L31.1875 17.207L31.1875 8.56641L33.0234 8.56641ZM46.9688 17.207L46.6016 16.0039L46.5391 16.0039C46.1224 16.5299 45.7031 16.8893 45.2812 17.082C44.8594 17.2695 44.3177 17.3633 43.6562 17.3633C42.8073 17.3633 42.1432 17.1341 41.6641 16.6758C41.1901 16.2174 40.9531 15.569 40.9531 14.7305C40.9531 13.8398 41.2839 13.168 41.9453 12.7148C42.6068 12.2617 43.6146 12.0143 44.9688 11.9727L46.4609 11.9258L46.4609 11.4648C46.4609 10.9128 46.3307 10.5013 46.0703 10.2305C45.8151 9.95443 45.4167 9.81641 44.875 9.81641C44.4323 9.81641 44.0078 9.88151 43.6016 10.0117C43.1953 10.1419 42.8047 10.2956 42.4297 10.4727L41.8359 9.16016C42.3047 8.91536 42.8177 8.73047 43.375 8.60547C43.9323 8.47526 44.4583 8.41016 44.9531 8.41016C46.0521 8.41016 46.8802 8.64974 47.4375 9.12891C48 9.60807 48.2812 10.3607 48.2812 11.3867L48.2812 17.207L46.9688 17.207ZM44.2344 15.957C44.901 15.957 45.4349 15.7721 45.8359 15.4023C46.2422 15.0273 46.4453 14.5039 46.4453 13.832L46.4453 13.082L45.3359 13.1289C44.4714 13.1602 43.8411 13.306 43.4453 13.5664C43.0547 13.8216 42.8594 14.2148 42.8594 14.7461C42.8594 15.1315 42.974 15.431 43.2031 15.6445C43.4323 15.8529 43.776 15.957 44.2344 15.957Z" fill="rgb(255,255,255)" fill-rule="nonzero" />
</svg>
