<svg viewBox="0 0 141 141" xmlns="http://www.w3.org/2000/svg" xmlns:xlink="http://www.w3.org/1999/xlink" width="141.000000" height="141.000000" fill="none" customFrame="#000000">
	<g id="танцпол">
		<path id="Ellipse 38" d="M141 70.5C141 109.436 109.436 141 70.5 141C31.5639 141 0 109.436 0 70.5C0 31.5639 31.5639 0 70.5 0C109.436 0 141 31.5639 141 70.5Z" fill="rgb(31,30,30)" fill-rule="nonzero" />
		<path id="Танцпол" d="M41.4531 77.207L39.5859 77.207L39.5859 67.3867L36.2266 67.3867L36.2266 65.7852L44.8125 65.7852L44.8125 67.3867L41.4531 67.3867L41.4531 77.207ZM51.7812 77.207L51.4141 76.0039L51.3516 76.0039C50.9349 76.5299 50.5156 76.8893 50.0938 77.082C49.6719 77.2695 49.1302 77.3633 48.4688 77.3633C47.6198 77.3633 46.9557 77.1341 46.4766 76.6758C46.0026 76.2174 45.7656 75.569 45.7656 74.7305C45.7656 73.8398 46.0964 73.168 46.7578 72.7148C47.4193 72.2617 48.4271 72.0143 49.7812 71.9727L51.2734 71.9258L51.2734 71.4648C51.2734 70.9128 51.1432 70.5013 50.8828 70.2305C50.6276 69.9544 50.2292 69.8164 49.6875 69.8164C49.2448 69.8164 48.8203 69.8815 48.4141 70.0117C48.0078 70.1419 47.6172 70.2956 47.2422 70.4727L46.6484 69.1602C47.1172 68.9154 47.6302 68.7305 48.1875 68.6055C48.7448 68.4753 49.2708 68.4102 49.7656 68.4102C50.8646 68.4102 51.6927 68.6497 52.25 69.1289C52.8125 69.6081 53.0938 70.3607 53.0938 71.3867L53.0938 77.207L51.7812 77.207ZM49.0469 75.957C49.7135 75.957 50.2474 75.7721 50.6484 75.4023C51.0547 75.0273 51.2578 74.5039 51.2578 73.832L51.2578 73.082L50.1484 73.1289C49.2839 73.1602 48.6536 73.306 48.2578 73.5664C47.8672 73.8216 47.6719 74.2148 47.6719 74.7461C47.6719 75.1315 47.7865 75.431 48.0156 75.6445C48.2448 75.8529 48.5885 75.957 49.0469 75.957ZM57.4922 68.5664L57.4922 72.0352L61.5625 72.0352L61.5625 68.5664L63.3984 68.5664L63.3984 77.207L61.5625 77.207L61.5625 73.4805L57.4922 73.4805L57.4922 77.207L55.6562 77.207L55.6562 68.5664L57.4922 68.5664ZM73.7266 75.7852L74.9766 75.7852L74.9766 80.2461L73.25 80.2461L73.25 77.207L66.0312 77.207L66.0312 68.5664L67.8672 68.5664L67.8672 75.7539L71.8906 75.7539L71.8906 68.5664L73.7266 68.5664L73.7266 75.7852ZM84.1016 68.5664L84.1016 77.207L82.2578 77.207L82.2578 70.0195L78.3828 70.0195L78.3828 77.207L76.5469 77.207L76.5469 68.5664L84.1016 68.5664ZM94.3984 72.8711C94.3984 74.2826 94.0365 75.3841 93.3125 76.1758C92.5885 76.9674 91.5807 77.3633 90.2891 77.3633C89.4818 77.3633 88.7682 77.181 88.1484 76.8164C87.5286 76.4518 87.0521 75.9284 86.7188 75.2461C86.3854 74.5638 86.2188 73.7721 86.2188 72.8711C86.2188 71.4701 86.5781 70.3763 87.2969 69.5898C88.0156 68.8034 89.0286 68.4102 90.3359 68.4102C91.5859 68.4102 92.5755 68.8138 93.3047 69.6211C94.0339 70.4232 94.3984 71.5065 94.3984 72.8711ZM88.1094 72.8711C88.1094 74.8659 88.8464 75.8633 90.3203 75.8633C91.7786 75.8633 92.5078 74.8659 92.5078 72.8711C92.5078 70.8971 91.7734 69.9102 90.3047 69.9102C89.5339 69.9102 88.974 70.1654 88.625 70.6758C88.2812 71.1862 88.1094 71.918 88.1094 72.8711ZM103.617 77.207L101.766 77.207L101.766 70.0039L99.3828 70.0039C99.237 71.8581 99.0391 73.306 98.7891 74.3477C98.5443 75.3893 98.2214 76.1497 97.8203 76.6289C97.4245 77.1081 96.9089 77.3477 96.2734 77.3477C95.8724 77.3477 95.5365 77.2904 95.2656 77.1758L95.2656 75.7383C95.4583 75.8112 95.651 75.8477 95.8438 75.8477C96.375 75.8477 96.7917 75.2513 97.0938 74.0586C97.401 72.8607 97.6406 71.0299 97.8125 68.5664L103.617 68.5664L103.617 77.207Z" fill="rgb(255,255,255)" fill-rule="nonzero" />
	</g>
</svg>
