<svg viewBox="0 0 95 121" xmlns="http://www.w3.org/2000/svg" xmlns:xlink="http://www.w3.org/1999/xlink" width="95.000000" height="121.000000" fill="none" customFrame="#000000">
	<g id="2 стол">
		<rect id="Rectangle 196" width="40.000000" height="93.000000" x="27.500000" y="0.500000" stroke="rgb(31,30,30)" stroke-width="1" />
		<path id="2" d="M52.957 56.2588L42.5957 56.2588L42.5957 53.7197L46.082 50.1943C47.0781 49.1527 47.7292 48.443 48.0352 48.0654C48.3411 47.6813 48.5527 47.3525 48.6699 47.0791C48.7936 46.8057 48.8555 46.5192 48.8555 46.2197C48.8555 45.8486 48.735 45.5557 48.4941 45.3408C48.2533 45.126 47.9147 45.0186 47.4785 45.0186C47.0293 45.0186 46.5736 45.1488 46.1113 45.4092C45.6556 45.6631 45.138 46.0407 44.5586 46.542L42.4395 44.0615C43.1751 43.404 43.7936 42.9352 44.2949 42.6553C44.7962 42.3688 45.3398 42.1507 45.9258 42.001C46.5182 41.8512 47.1823 41.7764 47.918 41.7764C48.8424 41.7764 49.666 41.9391 50.3887 42.2646C51.1178 42.5902 51.681 43.0557 52.0781 43.6611C52.4818 44.2601 52.6836 44.9339 52.6836 45.6826C52.6836 46.2425 52.612 46.7601 52.4688 47.2354C52.332 47.7106 52.1172 48.1794 51.8242 48.6416C51.5312 49.0973 51.1406 49.5791 50.6523 50.0869C50.1706 50.5947 49.1387 51.5583 47.5566 52.9775L47.5566 53.0752L52.957 53.0752L52.957 56.2588Z" fill="rgb(31,30,30)" fill-rule="nonzero" />
		<circle id="Ellipse 60" cx="12" cy="12" r="11.5" stroke="rgb(31,30,30)" stroke-width="1" />
		<circle id="Ellipse 63" cx="83" cy="13" r="11.5" stroke="rgb(31,30,30)" stroke-width="1" />
		<circle id="Ellipse 61" cx="12" cy="45" r="11.5" stroke="rgb(31,30,30)" stroke-width="1" />
		<circle id="Ellipse 64" cx="83" cy="46" r="11.5" stroke="rgb(31,30,30)" stroke-width="1" />
		<circle id="Ellipse 62" cx="12" cy="78" r="11.5" stroke="rgb(31,30,30)" stroke-width="1" />
		<circle id="Ellipse 65" cx="83" cy="79" r="11.5" stroke="rgb(31,30,30)" stroke-width="1" />
		<circle id="Ellipse 66" cx="48" cy="109" r="11.5" stroke="rgb(31,30,30)" stroke-width="1" />
	</g>
</svg>
