<svg viewBox="0 0 95 121" xmlns="http://www.w3.org/2000/svg" xmlns:xlink="http://www.w3.org/1999/xlink" width="95.000000" height="121.000000" fill="none" customFrame="#000000">
	<g id="6 стол">
		<rect id="Rectangle 184" width="40.000000" height="93.000000" x="27.500000" y="0.500000" stroke="rgb(31,30,30)" stroke-width="1" />
		<circle id="Ellipse 81" cx="12" cy="12" r="11.5" stroke="rgb(31,30,30)" stroke-width="1" />
		<circle id="Ellipse 82" cx="83" cy="13" r="11.5" stroke="rgb(31,30,30)" stroke-width="1" />
		<circle id="Ellipse 83" cx="12" cy="45" r="11.5" stroke="rgb(31,30,30)" stroke-width="1" />
		<circle id="Ellipse 84" cx="83" cy="46" r="11.5" stroke="rgb(31,30,30)" stroke-width="1" />
		<circle id="Ellipse 85" cx="12" cy="78" r="11.5" stroke="rgb(31,30,30)" stroke-width="1" />
		<circle id="Ellipse 86" cx="83" cy="79" r="11.5" stroke="rgb(31,30,30)" stroke-width="1" />
		<circle id="Ellipse 87" cx="48" cy="109" r="11.5" stroke="rgb(31,30,30)" stroke-width="1" />
		<path id="6" d="M42.6836 49.2236C42.6836 47.2314 42.9668 45.6201 43.5332 44.3896C44.1061 43.1527 44.946 42.2412 46.0527 41.6553C47.166 41.0693 48.5365 40.7764 50.1641 40.7764C50.7435 40.7764 51.4206 40.8317 52.1953 40.9424L52.1953 43.96C51.5443 43.8363 50.8379 43.7744 50.0762 43.7744C48.7871 43.7744 47.8268 44.0576 47.1953 44.624C46.5638 45.1904 46.2188 46.1149 46.1602 47.3975L46.2773 47.3975C46.8633 46.2907 47.804 45.7373 49.0996 45.7373C50.3691 45.7373 51.3522 46.1475 52.0488 46.9678C52.752 47.7816 53.1035 48.9176 53.1035 50.376C53.1035 51.945 52.6608 53.1852 51.7754 54.0967C50.89 55.0016 49.653 55.4541 48.0645 55.4541C46.3783 55.4541 45.0599 54.9072 44.1094 53.8135C43.1589 52.7197 42.6836 51.1898 42.6836 49.2236ZM47.9766 52.3975C48.3867 52.3975 48.7188 52.2445 48.9727 51.9385C49.2331 51.626 49.3633 51.1312 49.3633 50.4541C49.3633 49.2952 48.9141 48.7158 48.0156 48.7158C47.5729 48.7158 47.2116 48.8656 46.9316 49.165C46.6582 49.4645 46.5215 49.8291 46.5215 50.2588C46.5215 50.8838 46.6549 51.3981 46.9219 51.8018C47.1888 52.1989 47.5404 52.3975 47.9766 52.3975Z" fill="rgb(31,30,30)" fill-rule="nonzero" />
	</g>
</svg>
