<svg viewBox="0 0 90 91" xmlns="http://www.w3.org/2000/svg" xmlns:xlink="http://www.w3.org/1999/xlink" width="90.000000" height="91.000000" fill="none" customFrame="#000000">
	<g id="9 стол">
		<rect id="Rectangle 181" width="61.000000" height="36.000000" x="28.500000" y="27.500000" stroke="rgb(188.062,51.332,36.0453)" stroke-width="1" />
		<path id="9" d="M62.0645 45.5146C62.0645 48.3076 61.4622 50.3291 60.2578 51.5791C59.0534 52.8291 57.1263 53.4541 54.4766 53.4541C53.6042 53.4541 52.9401 53.4215 52.4844 53.3564L52.4844 50.2998C53.0443 50.404 53.6042 50.4561 54.1641 50.4561C55.5443 50.4561 56.6087 50.1729 57.3574 49.6064C58.1061 49.0335 58.513 48.1318 58.5781 46.9014L58.4609 46.9014C58.207 47.3701 57.9564 47.7087 57.709 47.917C57.4616 48.1253 57.1589 48.2848 56.8008 48.3955C56.4427 48.5062 55.9967 48.5615 55.4629 48.5615C54.2259 48.5615 53.2591 48.1481 52.5625 47.3213C51.8659 46.4945 51.5176 45.3551 51.5176 43.9033C51.5176 42.3213 51.9668 41.0811 52.8652 40.1826C53.7702 39.2842 55.0072 38.835 56.5762 38.835C58.321 38.835 59.6719 39.4144 60.6289 40.5732C61.5859 41.7321 62.0645 43.3792 62.0645 45.5146ZM56.6836 41.9209C56.2604 41.9209 55.9154 42.0739 55.6484 42.3799C55.388 42.6859 55.2578 43.1774 55.2578 43.8545C55.2578 44.3883 55.3717 44.8148 55.5996 45.1338C55.8275 45.4463 56.1758 45.6025 56.6445 45.6025C57.0677 45.6025 57.4355 45.4495 57.748 45.1436C58.0605 44.8376 58.2168 44.4697 58.2168 44.04C58.2168 43.4606 58.0703 42.9626 57.7773 42.5459C57.4909 42.1292 57.1263 41.9209 56.6836 41.9209Z" fill="rgb(188.062,51.332,36.0453)" fill-rule="nonzero" />
		<circle id="Ellipse 50" cx="12" cy="12" r="11.5" stroke="rgb(188.062,51.332,36.0453)" stroke-width="1" transform="matrix(-1,0,0,-1,69,91)" />
		<circle id="Ellipse 51" cx="12" cy="12" r="11.5" stroke="rgb(188.062,51.332,36.0453)" stroke-width="1" transform="matrix(-1,0,0,-1,24,55)" />
		<circle id="Ellipse 52" cx="12" cy="12" r="11.5" stroke="rgb(188.062,51.332,36.0453)" stroke-width="1" transform="matrix(-1,0,0,-1,69,24)" />
	</g>
</svg>
